<?xml version="1.0" encoding="UTF-8" standalone="no"?>
<svg
   height="100px"
   width="100px"
   fill="#000000"
   version="1.1"
   x="0px"
   y="0px"
   viewBox="0 0 100 100"
   style="enable-background:new 0 0 100 100;"
   xml:space="preserve"
   id="svg35809"
   sodipodi:docname="icon-error.svg"
   inkscape:version="1.1 (c68e22c387, 2021-05-23)"
   xmlns:inkscape="http://www.inkscape.org/namespaces/inkscape"
   xmlns:sodipodi="http://sodipodi.sourceforge.net/DTD/sodipodi-0.dtd"
   xmlns="http://www.w3.org/2000/svg"
   xmlns:svg="http://www.w3.org/2000/svg"
   xmlns:i="http://ns.adobe.com/AdobeIllustrator/10.0/"><defs
     id="defs35813" /><sodipodi:namedview
     id="namedview35811"
     pagecolor="#ffffff"
     bordercolor="#666666"
     borderopacity="1.0"
     inkscape:pageshadow="2"
     inkscape:pageopacity="0.0"
     inkscape:pagecheckerboard="0"
     showgrid="false"
     inkscape:zoom="8.73"
     inkscape:cx="4.8109966"
     inkscape:cy="50.057274"
     inkscape:window-width="2131"
     inkscape:window-height="1194"
     inkscape:window-x="3219"
     inkscape:window-y="136"
     inkscape:window-maximized="0"
     inkscape:current-layer="svg35809" /><g
     id="g35807"
     style="fill:#6e0000;fill-opacity:1"><g
       i:extraneous="self"
       id="g35805"
       style="fill:#6e0000;fill-opacity:1"><path
         d="M96.3,78.6L57.8,12.3c-3.5-6-12.2-6-15.6,0L3.7,78.6c-3.5,6,0.9,13.6,7.8,13.6h76.9C95.4,92.2,99.8,84.7,96.3,78.6z     M49.8,26.1c2.9-0.1,5.3,2.1,5.5,5c0,0.2,0,0.3,0,0.5L54,59.4c-0.1,2.2-2,3.9-4.1,3.8c-2.1-0.1-3.7-1.8-3.8-3.8l-1.3-27.9    C44.6,28.7,46.9,26.2,49.8,26.1z M50,80.7c-3.3,0-6-2.7-6-6c0-3.3,2.7-6,6-6c3.3,0,6,2.7,6,6C56,78,53.3,80.7,50,80.7z"
         id="path35803"
         style="fill:#6e0000;fill-opacity:1" /></g></g></svg>
