<?xml version="1.0" encoding="UTF-8" standalone="no"?>
<svg
   height="100px"
   width="100px"
   fill="#000000"
   version="1.1"
   x="0px"
   y="0px"
   viewBox="0 0 100 100"
   enable-background="new 0 0 100 100"
   xml:space="preserve"
   id="svg133"
   sodipodi:docname="icon-pending.svg"
   inkscape:version="1.1 (c68e22c387, 2021-05-23)"
   xmlns:inkscape="http://www.inkscape.org/namespaces/inkscape"
   xmlns:sodipodi="http://sodipodi.sourceforge.net/DTD/sodipodi-0.dtd"
   xmlns="http://www.w3.org/2000/svg"
   xmlns:svg="http://www.w3.org/2000/svg"><defs
     id="defs137" /><sodipodi:namedview
     id="namedview135"
     pagecolor="#ffffff"
     bordercolor="#666666"
     borderopacity="1.0"
     inkscape:pageshadow="2"
     inkscape:pageopacity="0.0"
     inkscape:pagecheckerboard="0"
     showgrid="false"
     inkscape:zoom="8.73"
     inkscape:cx="27.434135"
     inkscape:cy="50"
     inkscape:window-width="3440"
     inkscape:window-height="1377"
     inkscape:window-x="2552"
     inkscape:window-y="-8"
     inkscape:window-maximized="1"
     inkscape:current-layer="svg133" /><g
     display="none"
     id="g127"><rect
       x="55"
       y="35"
       display="inline"
       width="10"
       height="10"
       id="rect75" /><rect
       x="45"
       y="45"
       display="inline"
       width="10"
       height="10"
       id="rect77" /><rect
       x="35"
       y="55"
       display="inline"
       width="10"
       height="10"
       id="rect79" /><rect
       x="25"
       y="65"
       display="inline"
       width="10"
       height="10"
       id="rect81" /><rect
       x="25"
       y="75"
       display="inline"
       width="10"
       height="10"
       id="rect83" /><rect
       x="5"
       y="85"
       display="inline"
       width="10"
       height="10"
       id="rect85" /><rect
       x="25"
       y="85"
       display="inline"
       width="10"
       height="10"
       id="rect87" /><rect
       x="35"
       y="85"
       display="inline"
       width="10"
       height="10"
       id="rect89" /><rect
       x="5"
       y="65"
       display="inline"
       width="10"
       height="10"
       id="rect91" /><rect
       x="5"
       y="55"
       display="inline"
       width="10"
       height="10"
       id="rect93" /><rect
       x="5"
       y="45"
       display="inline"
       width="10"
       height="10"
       id="rect95" /><rect
       x="45"
       y="85"
       display="inline"
       width="10"
       height="10"
       id="rect97" /><rect
       x="65"
       y="25"
       display="inline"
       width="10"
       height="10"
       id="rect99" /><rect
       x="75"
       y="15"
       display="inline"
       width="10"
       height="10"
       id="rect101" /><rect
       x="85"
       y="5"
       display="inline"
       width="10"
       height="10"
       id="rect103" /><rect
       x="85"
       y="15"
       display="inline"
       width="10"
       height="10"
       id="rect105" /><rect
       x="75"
       y="25"
       display="inline"
       width="10"
       height="10"
       id="rect107" /><rect
       x="65"
       y="35"
       display="inline"
       width="10"
       height="10"
       id="rect109" /><rect
       x="55"
       y="45"
       display="inline"
       width="10"
       height="10"
       id="rect111" /><rect
       x="45"
       y="55"
       display="inline"
       width="10"
       height="10"
       id="rect113" /><rect
       x="35"
       y="65"
       display="inline"
       width="10"
       height="10"
       id="rect115" /><rect
       x="15"
       y="85"
       display="inline"
       width="10"
       height="10"
       id="rect117" /><rect
       x="5"
       y="75"
       display="inline"
       width="10"
       height="10"
       id="rect119" /><rect
       x="15"
       y="75"
       display="inline"
       width="10"
       height="10"
       id="rect121" /><rect
       x="55"
       y="85"
       display="inline"
       width="10"
       height="10"
       id="rect123" /><rect
       x="5"
       y="35"
       display="inline"
       width="10"
       height="10"
       id="rect125" /></g><g
     id="g3782"
     transform="matrix(1.5625,0,0,1.5625,0,0.05960518)"
     style="fill:#e0df50;fill-opacity:1"><g
       id="g3778"
       style="fill:#e0df50;fill-opacity:1"><path
         d="m 53,31.2 c 0,2.5 -0.4,4.8 -1.1,7 h -0.2 c 0,0 0.1,-0.3 0.3,-0.9 0.2,-0.6 0.4,-1.4 0.6,-2.5 0.2,-1.1 0.3,-2.5 0.3,-4.1 0,-1.6 -0.2,-3.4 -0.7,-5.3 -0.1,-0.4 -0.2,-0.8 -0.3,-1.2 0,0 0,0 0,-0.1 0.7,2.3 1.1,4.7 1.1,7.1 z"
         id="path3766"
         style="fill:#e0df50;fill-opacity:1" /><circle
         transform="matrix(1,-0.00432409,0.00432409,1,-0.2154,0.2186)"
         cx="50.5"
         cy="49.900002"
         id="ellipse3768"
         r="4.3000002"
         style="fill:#e0df50;fill-opacity:1" /><circle
         transform="matrix(0.5019,-0.8649,0.8649,0.5019,-30.6137,61.981)"
         cx="38.5"
         cy="57.599998"
         id="ellipse3770"
         r="3.7"
         style="fill:#e0df50;fill-opacity:1" /><circle
         transform="matrix(0.8704,-0.4924,0.4924,0.8704,-25.462,19.5187)"
         cx="24.299999"
         cy="58.099998"
         id="ellipse3772"
         r="3.2"
         style="fill:#e0df50;fill-opacity:1" /><circle
         transform="matrix(0.01532746,-0.9999,0.9999,0.01532746,-39.7689,63.9644)"
         cx="12.6"
         cy="52.200001"
         id="ellipse3774"
         r="2"
         style="fill:#e0df50;fill-opacity:1" /><path
         d="m 61.6,32.2 c 0,3 -0.4,5.8 -1.3,8.6 l -8.5,-2.5 c 0.7,-2.2 1.1,-4.6 1.1,-7 0,-2.5 -0.4,-4.8 -1.1,-7 -1.4,-4.4 -4.2,-8.2 -7.7,-11 C 44,13.2 43.9,13.1 43.8,13.1 42.2,11.9 40.4,10.9 38.5,10.1 37.3,9.6 36,9.2 34.6,8.9 L 34.1,8.8 33.6,8.7 C 33.3,8.6 32.9,8.6 32.6,8.5 L 32.1,8.4 c -0.2,0 -0.3,0 -0.5,0 H 31 30.7 30.6 30.5 v 0 0 C 27.8,8.3 25,8.7 22.4,9.5 c -2.6,0.8 -5.1,2.1 -7.2,3.7 -2.1,1.6 -3.9,3.5 -5.3,5.5 -0.4,0.5 -0.7,1 -1,1.5 -0.2,0.3 -0.3,0.5 -0.4,0.8 -0.1,0.3 -0.3,0.5 -0.4,0.8 -0.5,1 -0.9,2.1 -1.3,3.1 -0.2,0.5 -0.3,1 -0.5,1.5 -0.1,0.2 -0.1,0.5 -0.2,0.7 0,0.2 -0.1,0.5 -0.1,0.7 0,0.1 -0.1,0.2 -0.1,0.4 0,0.1 0,0.2 -0.1,0.4 0,0.2 -0.1,0.5 -0.1,0.7 -0.1,0.5 -0.1,0.9 -0.2,1.3 0,0.5 -0.1,0.9 -0.1,1.4 v 0.1 c 0,0 0,0 0,0 v 0 0.2 c 0,0.1 0,0.2 0,0.3 0,0.2 0,0.4 0,0.6 0,0.8 0,1.5 0.1,2.1 0.1,1.3 0.3,2.3 0.5,2.9 0.1,0.3 0.1,0.6 0.2,0.8 0,0.2 0.1,0.3 0.1,0.3 L 3.6,40 c 0,0 0,-0.1 -0.1,-0.3 C 3.4,39.5 3.3,39.2 3.2,38.9 3.1,38.5 2.9,38 2.8,37.4 2.5,35.8 2.4,34.1 2.4,32.3 2.4,15.9 15.7,2.6 32,2.6 c 7.4,0 14.1,2.7 19.3,7.1 2.3,2 4.3,4.2 5.8,6.8 2.8,4.6 4.5,10 4.5,15.7 z"
         id="path3776"
         style="fill:#e0df50;fill-opacity:1" /></g><path
       d="m 19.6,31.4 c -0.4,1 -0.1,2 0.6,2.8 2.3,2.3 3.8,3.9 6.2,6.2 0.3,0.3 0.7,0.5 1,0.6 1.1,0.3 2,0.1 2.8,-0.7 1.9,-1.9 4.1,-4 6.7,-6.6 2.1,-2.1 4.6,-4.4 6.6,-6.4 0.1,-0.1 0.1,-0.1 0.2,-0.2 0.8,-0.8 0.9,-2.2 0.3,-3.1 -0.5,-0.8 -1.3,-1.2 -2.2,-1.2 -0.7,0 -1.4,0.3 -1.9,0.8 -1.7,1.7 -3.9,3.8 -5.5,5.4 l -0.3,0.3 c -1.7,1.7 -3.7,3.6 -5.4,5.3 L 28.3,35 24,30.6 c -0.5,-0.5 -1.2,-0.8 -1.9,-0.8 -0.1,0 -0.1,0 -0.2,0 -1.1,0 -1.9,0.6 -2.3,1.6 z"
       id="path3780"
       style="fill:#e0df50;fill-opacity:1" /></g></svg>
