<?xml version="1.0" encoding="UTF-8" standalone="no"?>
<svg
   height="100px"
   width="100px"
   fill="#000000"
   xml:space="preserve"
   version="1.1"
   style="shape-rendering:geometricPrecision;text-rendering:geometricPrecision;image-rendering:optimizeQuality;"
   viewBox="0 0 10000 10000"
   x="0px"
   y="0px"
   fill-rule="evenodd"
   clip-rule="evenodd"
   id="svg35628"
   sodipodi:docname="noun_tick_2075651.svg"
   inkscape:version="1.1 (c68e22c387, 2021-05-23)"
   xmlns:inkscape="http://www.inkscape.org/namespaces/inkscape"
   xmlns:sodipodi="http://sodipodi.sourceforge.net/DTD/sodipodi-0.dtd"
   xmlns="http://www.w3.org/2000/svg"
   xmlns:svg="http://www.w3.org/2000/svg"><sodipodi:namedview
     id="namedview35630"
     pagecolor="#ffffff"
     bordercolor="#666666"
     borderopacity="1.0"
     inkscape:pageshadow="2"
     inkscape:pageopacity="0.0"
     inkscape:pagecheckerboard="0"
     showgrid="false"
     inkscape:zoom="8.73"
     inkscape:cx="27.434135"
     inkscape:cy="50"
     inkscape:window-width="3440"
     inkscape:window-height="1377"
     inkscape:window-x="2552"
     inkscape:window-y="-8"
     inkscape:window-maximized="1"
     inkscape:current-layer="svg35628" /><defs
     id="defs35622"><style
       type="text/css"
       id="style35620">
   
    .fil0 {fill:#000000;fill-rule:nonzero}
   
  </style></defs><g
     id="g35626"
     style="fill:#9a9c22;fill-opacity:1"
     transform="matrix(1.1566714,0,0,1.1566714,-783.357,-783.357)"><path
       class="fil0"
       d="m 4115,1893 c 940,0 1821,421 2412,1148 l -177,200 C 5810,2555 4991,2156 4115,2156 c -1570,0 -2844,1273 -2844,2844 0,1571 1274,2844 2844,2844 1782,0 3049,-1602 2822,-3235 L 4862,6584 2847,4444 3767,3499 4986,5042 7972,1907 8992,2653 7167,4390 C 7536,6224 6136,8107 4115,8107 2399,8107 1008,6716 1008,5000 1008,3284 2399,1893 4115,1893 Z"
       id="path35624"
       style="fill:#9a9c22;fill-opacity:1" /></g></svg>
