<?xml version="1.0" encoding="UTF-8" standalone="no"?>
<svg
   height="100px"
   width="100px"
   fill="#000000"
   version="1.1"
   x="0px"
   y="0px"
   viewBox="0 0 100 100"
   enable-background="new 0 0 100 100"
   xml:space="preserve"
   id="svg33813"
   sodipodi:docname="noun_Info_223370.svg"
   inkscape:version="1.1 (c68e22c387, 2021-05-23)"
   xmlns:inkscape="http://www.inkscape.org/namespaces/inkscape"
   xmlns:sodipodi="http://sodipodi.sourceforge.net/DTD/sodipodi-0.dtd"
   xmlns="http://www.w3.org/2000/svg"
   xmlns:svg="http://www.w3.org/2000/svg"><defs
     id="defs33817" /><sodipodi:namedview
     id="namedview33815"
     pagecolor="#ffffff"
     bordercolor="#666666"
     borderopacity="1.0"
     inkscape:pageshadow="2"
     inkscape:pageopacity="0.0"
     inkscape:pagecheckerboard="0"
     showgrid="false"
     inkscape:zoom="8.73"
     inkscape:cx="27.434135"
     inkscape:cy="50"
     inkscape:window-width="3440"
     inkscape:window-height="1377"
     inkscape:window-x="2552"
     inkscape:window-y="-8"
     inkscape:window-maximized="1"
     inkscape:current-layer="svg33813" /><path
     d="M16.5,16.5C-2,35-2,65,16.5,83.5C35,102,65,102,83.5,83.5C102,65,102,35,83.5,16.5C65-2,35-2,16.5,16.5z M51.9,22.5  c4,0,7.2,3.3,7.2,7.3c0,4-3.3,7.3-7.2,7.3c-4,0-7.3-3.3-7.3-7.4C44.6,25.7,47.9,22.5,51.9,22.5z M62.2,71.4c-0.2,0.6-0.6,1.3-1,1.7  c-2.6,2.7-5.8,4.3-9.6,4.3c-1.8,0-3.5,0-5.3-0.3c-2.9-0.4-6.6-4-6.1-7.8c0.4-2.6,0.8-5.2,1.2-7.8c0.8-4.5,1.6-9.1,2.4-13.6  c0-0.3,0.1-0.6,0.1-0.9c0-1.9-0.6-2.6-2.5-2.8c-0.8-0.1-1.6-0.2-2.4-0.4c-0.9-0.3-1.4-1.1-1.3-1.8c0.1-0.8,0.6-1.3,1.6-1.5  c0.5-0.1,1.1-0.1,1.7-0.1c2.2,0,4.4,0,6.7,0c2.4,0,4.7,0,7.1,0c1.7,0,2.7,0.8,2.7,2.5c0,1.4-0.2,2.8-0.5,4.2  c-0.9,5.2-1.9,10.3-2.8,15.5c-0.3,1.7-0.7,3.4-0.9,5.1c-0.1,0.8,0,1.7,0.2,2.5c0.3,1.1,1.1,1.7,2.2,1.6c0.9-0.1,1.8-0.4,2.7-0.8  c0.7-0.3,1.3-0.8,2-1C61.6,69.6,62.5,70.3,62.2,71.4z"
     id="path33811"
     style="fill:#bc7a00;fill-opacity:1" /></svg>
